<mxfile host="app.diagrams.net" modified="2023-12-21T08:04:11.530Z" agent="Mozilla/5.0 (Macintosh; Intel Mac OS X 10_15_7) AppleWebKit/537.36 (KHTML, like Gecko) Chrome/120.0.0.0 Safari/537.36" version="22.1.11" etag="MCAyitmOUKAkqo75cTXe" type="github">
  <diagram name="페이지-1" id="-2Ph8s7oTdg7xncKEYVO">
    <mxGraphModel>
      <root>
        <mxCell id="0" />
        <mxCell id="1" parent="0" />
      </root>
    </mxGraphModel>
  </diagram>
</mxfile>
